<?xml version="1.0" encoding="UTF-8"?>
<svg id="Layer_1" data-name="Layer 1" xmlns="http://www.w3.org/2000/svg" width="1582.149" height="530.007" viewBox="0 0 1582.149 530.007">
  <path d="M186.441,320.776c-15.75,0-28.081-5.64-36.994-16.917-8.913-11.278-13.37-26.725-13.37-46.34s4.557-34.887,13.673-45.82c9.115-10.932,21.749-16.398,37.902-16.398,10.326,0,19.023,2.077,26.091,6.23,7.066,4.153,12.591,10.789,16.571,19.903l-10.73,4.5c-2.942-7.384-7.082-12.691-12.417-15.922-5.337-3.23-11.842-4.846-19.514-4.846-12.692,0-22.485,4.645-29.378,13.932-6.895,9.289-10.341,22.097-10.341,38.422,0,16.615,3.447,29.682,10.341,39.201,6.893,9.519,16.455,14.278,28.687,14.278,8.595,0,15.663-2.077,21.201-6.23,5.538-4.153,9.662-9.808,12.375-16.961l10.125,4.673c-8.078,18.864-22.817,28.297-44.22,28.297Z" fill="#a906b2"/>
  <g>
    <path d="M330.869,319.046v-58.758h-67.844v226.719l-11.026,.5-.57-290.39h11.596v53.133h67.844V13.007h11.423V319.046h-11.423Z" fill="#1b1464"/>
    <path d="M251.501,488.03l-.572-291.413h12.597v53.133h66.844V12.507h12.423V319.546h-12.423v-58.758h-66.844v226.696l-12.025,.546Zm.43-290.413l.568,289.366,10.027-.454v-226.741h68.844v58.758h10.423V13.507h-10.423V250.75h-68.844v-53.133h-10.595Z" fill="#1b1464"/>
  </g>
  <path d="M374.31,319.046v-121.929h63.43v9.692h-51.834v44.739h46.556v9.605h-46.556v48.2h55.383v9.692h-66.979Z" fill="#a906b2"/>
  <g>
    <path d="M546.343,319.046l-72.776-108.342c.519,9.346,.779,16.846,.779,22.499v253.804h-10.903l.558-289.5h10l76.411,108.731c-.636-8.134-.952-16.239-.952-24.316v-86.916h11.077v124.039h-14.192Z" fill="#1b1464"/>
    <path d="M474.845,487.507h-11.904l.56-290.5h10.759l.149,.212,75.367,107.247c-.542-7.506-.817-15.08-.817-22.543v-87.416h12.077v125.039h-14.958l-.148-.222-71.763-106.834c.452,8.488,.681,15.449,.681,20.712v254.304Zm-10.902-1h9.902V233.203c0-5.615-.262-13.175-.778-22.471l-.101-1.818,73.643,109.632h13.425v-123.039h-10.077v86.416c0,8.039,.32,16.207,.951,24.277l.142,1.82-77.311-110.013h-9.241l-.556,288.5Z" fill="#1b1464"/>
  </g>
  <g>
    <path d="M660.743,319.046l-43.441-60.921-12.461,12.375v216.507h-11.596V197.007h11.596v61.205l54.159-60.705h9l-42.477,52.57,49.758,68.969h-14.538Z" fill="#1b1464"/>
    <path d="M605.341,487.507h-12.596V196.507h12.596v60.393l53.435-59.893h10.271l-42.895,53.087,50.106,69.452h-15.772l-43.249-60.651-11.896,11.813v216.799Zm-11.596-1h10.596v-216.215l13.026-12.936,43.633,61.19h13.303l-49.41-68.486,.24-.297,41.819-51.756h-7.729l-54.883,61.516v-62.016h-10.596V486.507Z" fill="#1b1464"/>
  </g>
  <path d="M735.509,320.776c-15.75,0-28.081-5.64-36.994-16.917-8.913-11.278-13.37-26.725-13.37-46.34s4.557-34.887,13.673-45.82c9.115-10.932,21.749-16.398,37.902-16.398,10.326,0,19.023,2.077,26.091,6.23,7.066,4.153,12.59,10.789,16.572,19.903l-10.73,4.5c-2.942-7.384-7.083-12.691-12.418-15.922-5.337-3.23-11.842-4.846-19.514-4.846-12.692,0-22.485,4.645-29.378,13.932-6.895,9.289-10.341,22.097-10.341,38.422,0,16.615,3.447,29.682,10.341,39.201,6.893,9.519,16.455,14.278,28.687,14.278,8.595,0,15.663-2.077,21.201-6.23,5.538-4.153,9.662-9.808,12.374-16.961l10.125,4.673c-8.077,18.864-22.817,28.297-44.22,28.297Z" fill="#a906b2"/>
  <path d="M909.186,257.519c0,12.634-2.351,23.769-7.052,33.403-4.703,9.635-11.395,17.02-20.077,22.153s-18.879,7.701-30.59,7.701c-11.942,0-22.239-2.567-30.894-7.701-8.653-5.134-15.26-12.505-19.816-22.11-4.558-9.605-6.836-20.754-6.836-33.446,0-19.384,5.091-34.599,15.273-45.647,10.182-11.047,24.33-16.571,42.445-16.571,11.826,0,22.066,2.481,30.721,7.442,8.653,4.962,15.287,12.173,19.902,21.634,4.615,9.462,6.923,20.509,6.923,33.143Zm-11.941,0c0-16.21-4.011-28.989-12.028-38.335-8.02-9.346-19.211-14.019-33.576-14.019-14.538,0-25.817,4.602-33.835,13.803-8.02,9.202-12.028,22.053-12.028,38.551s4.08,29.465,12.244,39.071c8.163,9.605,19.312,14.408,33.446,14.408,14.653,0,25.945-4.701,33.879-14.105,7.932-9.402,11.898-22.527,11.898-39.374Z" fill="#a906b2"/>
  <g>
    <path d="M1044.961,319.046v-93.978c0-2.48,.173-7.788,.519-15.923-1.211,3.289-2.149,5.798-2.812,7.529-.664,1.731-2.582,6.49-5.754,14.278l-35.826,88.093h-10.73l-37.729-90.949c-2.423-5.595-4.876-11.912-7.355-18.952,.115,3.289,.217,6.592,.303,9.909,.087,3.318,.13,6.62,.13,9.908l.295,90.544h-11v-122h11l41.588,86.925c1.961,4.962,4.674,12.26,8.135,21.894,1.385-3.691,2.77-7.326,4.153-10.903,1.385-3.577,2.826-7.183,4.327-10.817l35.652-87.488h16.183v121.929h-11.076Z" fill="#662d91"/>
    <path d="M946.501,320.007h-12.002v-123h11.815l.136,.284,41.588,86.925c1.893,4.785,4.476,11.723,7.694,20.661,1.226-3.257,2.451-6.469,3.676-9.636,1.393-3.596,2.85-7.239,4.332-10.827l35.778-87.797h17.019v122.929h-12.076v-94.478c0-2.137,.13-6.427,.388-12.773-.696,1.873-1.268,3.392-1.715,4.558-.661,1.724-2.599,6.531-5.758,14.288l-35.953,88.405h-11.4l-37.857-91.257c-2.067-4.775-4.178-10.131-6.286-15.955,.072,2.229,.137,4.465,.195,6.707,.086,3.294,.13,6.632,.13,9.921l.297,91.044Zm-11.002-1h9.998l-.293-90.043c0-3.282-.044-6.611-.13-9.896-.086-3.315-.188-6.617-.303-9.904l-.114-3.266,1.086,3.083c2.458,6.978,4.928,13.343,7.343,18.919l37.604,90.647h10.061l35.699-87.782c3.156-7.751,5.091-12.552,5.75-14.269,.662-1.729,1.601-4.236,2.811-7.522l1.104-3-.136,3.193c-.344,8.09-.519,13.44-.519,15.902v93.478h10.076v-120.929h-15.347l-35.525,87.176c-1.479,3.584-2.935,7.22-4.324,10.81-1.383,3.575-2.767,7.208-4.151,10.898l-.478,1.274-.461-1.281c-3.43-9.548-6.165-16.909-8.129-21.879l-41.438-86.608h-10.185v121Z" fill="#662d91"/>
  </g>
  <g>
    <path d="M1162.216,233.03c0,7.212-1.645,13.629-4.933,19.254s-8.034,9.995-14.235,13.11c-6.202,3.115-13.514,4.673-21.937,4.673h-20.769v216.94h-11.596V197.117h31.672c13.211,0,23.479,3.173,30.807,9.519,7.326,6.347,10.99,15.144,10.99,26.394Zm-11.769,.173c0-8.422-2.64-14.984-7.918-19.687-5.279-4.701-13.14-7.052-23.581-7.052h-18.605v54.431h19.384c9.808,0,17.379-2.408,22.716-7.226,5.336-4.816,8.005-11.639,8.005-20.466Z" fill="#1b1464"/>
    <path d="M1100.843,487.507h-12.596V196.617h32.172c13.272,0,23.747,3.244,31.134,9.641,7.407,6.417,11.163,15.424,11.163,26.771,0,7.267-1.683,13.83-5.001,19.506-3.322,5.683-8.181,10.159-14.442,13.305-6.243,3.136-13.699,4.726-22.161,4.726h-20.269v216.94Zm-11.596-1h10.596v-216.94h21.269c8.304,0,15.609-1.554,21.712-4.62,6.086-3.057,10.806-7.403,14.028-12.916,3.228-5.521,4.864-11.915,4.864-19.001,0-11.044-3.64-19.797-10.817-26.016-7.2-6.235-17.455-9.397-30.479-9.397h-31.172V486.507Zm30.479-225.113h-19.884v-55.431h19.105c10.519,0,18.564,2.416,23.914,7.179,5.364,4.78,8.085,11.529,8.085,20.061,0,8.933-2.749,15.944-8.17,20.837-5.406,4.88-13.162,7.354-23.051,7.354Zm-18.884-1h18.884c9.634,0,17.164-2.388,22.381-7.097,5.202-4.696,7.84-11.457,7.84-20.095,0-8.233-2.607-14.732-7.751-19.313-5.16-4.596-12.982-6.926-23.248-6.926h-18.105v53.431Z" fill="#1b1464"/>
  </g>
  <path d="M1294.529,257.519c0,12.634-2.351,23.769-7.052,33.403-4.703,9.635-11.395,17.02-20.077,22.153s-18.879,7.701-30.59,7.701c-11.942,0-22.239-2.567-30.894-7.701-8.653-5.134-15.26-12.505-19.816-22.11-4.558-9.605-6.836-20.754-6.836-33.446,0-19.384,5.091-34.599,15.273-45.647,10.182-11.047,24.33-16.571,42.445-16.571,11.826,0,22.066,2.481,30.721,7.442,8.653,4.962,15.287,12.173,19.902,21.634,4.615,9.462,6.923,20.509,6.923,33.143Zm-11.941,0c0-16.21-4.011-28.989-12.028-38.335-8.02-9.346-19.211-14.019-33.576-14.019-14.538,0-25.817,4.602-33.835,13.803-8.02,9.202-12.028,22.053-12.028,38.551s4.08,29.465,12.244,39.071c8.163,9.605,19.312,14.408,33.446,14.408,14.653,0,25.945-4.701,33.879-14.105,7.932-9.402,11.898-22.527,11.898-39.374Z" fill="#a906b2"/>
  <g>
    <path d="M1387.728,286.163c0,11.02-3.318,19.543-9.951,25.571-6.635,6.028-16.01,9.043-28.124,9.043-21.98,0-34.904-10.008-38.769-30.028l10.817-2.25c1.673,8.02,4.816,13.817,9.433,17.394,4.614,3.577,10.787,5.365,18.519,5.365,8.71,0,15.359-2.105,19.946-6.317,4.586-4.21,6.88-10.239,6.88-18.086,0-4.5-.794-8.177-2.38-11.033-1.588-2.855-3.736-5.22-6.447-7.096-2.712-1.874-5.899-3.418-9.562-4.63-3.664-1.211-7.602-2.479-11.812-3.808-8.885-2.711-15.332-5.465-19.341-8.264-4.011-2.797-7.11-6.259-9.303-10.384-2.193-4.124-3.288-9.216-3.288-15.273,0-9.865,3.028-17.508,9.086-22.932,6.058-5.422,14.48-8.134,25.269-8.134,10.211,0,18.303,2.12,24.273,6.36s10.081,10.832,12.331,19.773l-10.817,2.683c-1.615-6.691-4.543-11.609-8.783-14.754-4.24-3.144-9.938-4.716-17.091-4.716-7.385,0-13.081,1.817-17.091,5.452s-6.014,8.913-6.014,15.836c0,4.327,.778,7.918,2.336,10.774,1.558,2.855,3.938,5.293,7.14,7.312,3.202,2.02,8.956,4.327,17.264,6.923,9.576,3.059,16.226,5.64,19.946,7.745,3.722,2.106,6.677,4.443,8.87,7.009,2.191,2.567,3.851,5.525,4.976,8.87,1.125,3.347,1.688,7.212,1.688,11.596Z" fill="#662d91"/>
    <path d="M1349.653,321.276c-22.152,0-35.361-10.239-39.26-30.433l-.093-.483,11.789-2.452,.102,.488c1.641,7.863,4.752,13.617,9.25,17.101,4.502,3.491,10.63,5.261,18.212,5.261,8.541,0,15.138-2.081,19.608-6.186,4.457-4.093,6.718-10.054,6.718-17.718,0-4.392-.779-8.022-2.317-10.791-1.542-2.774-3.66-5.105-6.294-6.927-2.663-1.84-5.838-3.376-9.436-4.566-3.562-1.178-7.535-2.458-11.805-3.805-8.891-2.713-15.444-5.516-19.477-8.331-4.056-2.829-7.237-6.381-9.458-10.56-2.221-4.175-3.347-9.393-3.347-15.508,0-9.967,3.113-17.808,9.252-23.304,6.125-5.482,14.738-8.262,25.603-8.262,10.27,0,18.534,2.171,24.562,6.453,6.043,4.292,10.258,11.04,12.527,20.059l.122,.487-11.793,2.924-.118-.489c-1.579-6.542-4.471-11.411-8.595-14.47-4.133-3.064-9.782-4.618-16.793-4.618-7.222,0-12.858,1.791-16.755,5.322-3.882,3.518-5.85,8.721-5.85,15.465,0,4.223,.766,7.767,2.274,10.535,1.51,2.767,3.854,5.166,6.968,7.128,3.148,1.986,8.917,4.297,17.146,6.869,9.571,3.057,16.313,5.676,20.043,7.787,3.752,2.124,6.781,4.519,9.004,7.12,2.224,2.605,3.93,5.645,5.069,9.035,1.138,3.382,1.714,7.337,1.714,11.756,0,11.113-3.403,19.841-10.115,25.94-6.698,6.087-16.274,9.173-28.46,9.173Zm-38.182-30.139c3.911,19.336,16.755,29.139,38.182,29.139,11.93,0,21.278-2.999,27.788-8.913,6.494-5.901,9.787-14.38,9.787-25.2,0-4.31-.559-8.158-1.661-11.438-1.1-3.269-2.742-6.197-4.882-8.704-2.146-2.512-5.086-4.833-8.736-6.899-3.67-2.077-10.35-4.668-19.853-7.704-8.309-2.596-14.156-4.944-17.378-6.976-3.26-2.055-5.72-4.577-7.312-7.496-1.591-2.916-2.397-6.622-2.397-11.013,0-7.038,2.078-12.491,6.178-16.207,4.086-3.703,9.949-5.581,17.427-5.581,7.229,0,13.08,1.62,17.389,4.814,4.213,3.125,7.188,8.019,8.851,14.55l9.843-2.441c-2.237-8.538-6.276-14.929-12.011-19.001-5.857-4.159-13.927-6.268-23.984-6.268-10.61,0-19,2.694-24.936,8.007-5.918,5.299-8.919,12.889-8.919,22.559,0,5.95,1.087,11.01,3.229,15.039,2.146,4.037,5.223,7.472,9.147,10.209,3.946,2.755,10.406,5.513,19.2,8.196,4.279,1.35,8.256,2.631,11.823,3.811,3.688,1.22,6.948,2.799,9.689,4.693,2.762,1.91,4.982,4.354,6.6,7.264,1.621,2.919,2.443,6.713,2.443,11.276,0,7.956-2.369,14.165-7.042,18.454-4.66,4.279-11.484,6.449-20.284,6.449-7.81,0-14.143-1.841-18.825-5.47-4.596-3.561-7.794-9.345-9.511-17.198l-9.846,2.048Z" fill="#662d91"/>
  </g>
  <g>
    <path d="M1411.178,319.046l.821-121.539,62.609-.39v9.692h-51.835v44.739h46.557v9.605h-46.557v48.2h55.383v9.692h-66.979Z" fill="#662d91"/>
    <path d="M1478.657,319.546h-67.981l.003-.503,.824-122.033,63.606-.396v10.695h-51.835v43.739h46.557v10.605h-46.557v47.2h55.383v10.692Zm-66.976-1h65.976v-8.692h-55.383v-49.2h46.557v-8.605h-46.557v-45.739h51.835v-8.689l-61.612,.384-.815,120.542Z" fill="#662d91"/>
  </g>
  <g>
    <path d="M1577.154,231.299c0,9.116-2.842,16.701-8.523,22.759-5.684,6.058-13.313,9.75-22.889,11.077l35.479,53.912h-13.759l-33.489-52.527h-22.067l-.906,51.988h-10v-122l34.444,.61c13.21,0,23.465,3.029,30.764,9.086,7.297,6.058,10.946,14.423,10.946,25.095Zm-11.769,.173c0-8.018-2.697-14.191-8.091-18.519-5.396-4.327-13.054-6.49-22.976-6.49h-22.413v50.883h23.105c9.519,0,16.961-2.278,22.326-6.836,5.365-4.557,8.048-10.903,8.048-19.038Z" fill="#1b1464"/>
    <path d="M1582.149,319.546h-14.961l-33.489-52.527h-21.302l-.906,51.988h-10.991v-123.009l34.953,.619c13.26,0,23.718,3.096,31.074,9.202,7.384,6.129,11.127,14.702,11.127,25.48,0,9.203-2.913,16.975-8.659,23.101-5.582,5.949-13.115,9.687-22.403,11.116l35.558,54.03Zm-14.412-1h12.557l-35.404-53.798,.784-.108c9.414-1.305,17.016-4.98,22.593-10.924,5.565-5.934,8.388-13.476,8.388-22.417,0-10.466-3.622-18.78-10.766-24.71-7.173-5.953-17.415-8.971-30.444-8.971l-33.944-.602v120.991h9.009l.906-51.988h22.833l33.489,52.527Zm-32.726-60.7h-23.605v-51.883h22.913c9.992,0,17.827,2.22,23.288,6.6,5.493,4.407,8.278,10.769,8.278,18.909,0,8.251-2.767,14.785-8.225,19.419-5.432,4.615-13.053,6.956-22.649,6.956Zm-22.605-1h22.605c9.354,0,16.756-2.26,22.003-6.717,5.223-4.436,7.871-10.713,7.871-18.657,0-7.822-2.659-13.921-7.903-18.128-5.279-4.233-12.904-6.38-22.663-6.38h-21.913v49.883Z" fill="#1b1464"/>
  </g>
  <rect x="1088.459" y="12.507" width="11.08" height="184.5" fill="#1b1464"/>
  <rect x="658.549" y="13.007" width="10.9" height="184" fill="#1b1464"/>
  <g>
    <polyline points="1505.999 309.507 1506 319.507 1506 488.007" fill="#1b1464"/>
    <rect x="1500.4" y="309.507" width="11.199" height="178.5" fill="#1b1464"/>
  </g>
  <g>
    <line x1="468.5" y1="12.757" x2="469" y2="206.007" fill="#1b1464"/>
    <rect x="463.149" y="12.757" width="11.2" height="193.251" transform="translate(-.281 1.213) rotate(-.148)" fill="#1b1464"/>
  </g>
  <g>
    <rect x="338.499" y="8.507" width="1165" height="3.5" fill="#1b1464"/>
    <rect x="330.499" y=".507" width="1181" height="19.5" fill="#1b1464"/>
  </g>
  <g>
    <rect x="259.5" y="487.757" width="1244" height=".25" fill="#1b1464"/>
    <rect x="251.5" y="479.757" width="1260" height="16.25" fill="#1b1464"/>
  </g>
  <path d="M112.389,62.485l-9.778-6.956c12.694-17.845,41.594-39.534,107.187-41.519,60.946-1.846,86.706,15.054,100.547,24.133,1.61,1.056,3,1.967,4.262,2.731l-6.214,10.266c-1.448-.876-2.994-1.89-4.629-2.963-13.631-8.94-36.453-23.901-93.603-22.173-47.333,1.433-82.056,14.388-97.771,36.481Z"/>
  <g>
    <rect x="940.5" y="319.007" width="0" height="133" fill="#662d91"/>
    <rect x="934.5" y="319.007" width="12" height="133" fill="#662d91"/>
  </g>
  <path d="M762.347,449.13c-49.403,0-99.091-10.53-144.287-30.642l4.879-10.963c46.411,20.651,97.724,30.851,148.399,29.483,48.354-1.301,96.951-13.195,140.537-34.397l5.25,10.791c-45.113,21.945-95.414,34.256-145.464,35.603-3.102,.083-6.208,.125-9.314,.125Z"/>
  <path d="M1020.678,426.129c-17.532,0-34.767-3.193-51.32-9.518l4.283-11.209c16.927,6.466,34.621,9.364,52.607,8.609,15.109-.633,29.911-3.851,43.995-9.564l4.512,11.119c-15.364,6.233-31.516,9.744-48.005,10.436-2.027,.085-4.053,.127-6.072,.127Z"/>
  <g>
    <rect x="1417.5" y="52.007" width="0" height="145" fill="#662d91"/>
    <rect x="1411.5" y="52.007" width="12" height="145" fill="#662d91"/>
  </g>
  <g>
    <rect x="1349.5" y="311.007" width="0" height="145" fill="#662d91"/>
    <rect x="1343.5" y="311.007" width="12" height="145" fill="#662d91"/>
  </g>
  <path d="M1112.559,79.643l-4.119-11.271c47.879-17.494,97.937-26.364,148.779-26.364h.284c46.568,.03,92.627,7.536,136.896,22.309l-3.799,11.383c-43.044-14.364-87.827-21.662-133.104-21.691h-.276c-49.437,0-98.103,8.624-144.66,25.636Z"/>
  <path d="M1441.741,74.25l-8.482-8.487c4.065-4.063,15.337-13.539,32.164-13.756,12.482-.143,21.93,4.966,26.449,8.037l-6.744,9.926c-3.354-2.278-10.312-6.093-19.551-5.963-12.423,.161-20.808,7.217-23.836,10.244Z"/>
  <path d="M1221.388,434.498c-38.532,0-76.498-7.349-113.107-21.916l4.438-11.15c40.485,16.11,82.69,23.039,125.438,20.585,28.704-1.646,57.054-7.58,84.264-17.638l4.16,11.256c-28.326,10.47-57.845,16.647-87.736,18.362-5.827,.334-11.65,.501-17.455,.501Z"/>
  <path d="M1430.327,424.13c-19.418,0-38.546-3.527-56.956-10.514l4.258-11.219c18.913,7.176,38.639,10.416,58.632,9.614,15.057-.601,29.931-3.511,44.207-8.65l4.064,11.291c-15.431,5.555-31.511,8.7-47.793,9.35-2.14,.085-4.278,.128-6.412,.128Z"/>
  <g>
    <rect x="940.5" y="57.507" width=".5" height="146.5" transform="translate(1881.499 261.514) rotate(180)" fill="#662d91"/>
    <rect x="934.5" y="51.507" width="12.5" height="158.5" fill="#662d91"/>
  </g>
  <path d="M691.613,85.537l-5.227-14.06c37.774-14.042,77.333-21.265,117.575-21.47,38.292-.18,76.157,5.997,112.463,18.403l-4.85,14.194c-34.718-11.863-70.893-17.781-107.537-17.597-38.479,.196-76.304,7.104-112.425,20.53Z"/>
  <path d="M970.66,83.053l-7.32-13.093c16.553-9.255,35.293-14.767,54.196-15.939,25.894-1.606,42.163,2.874,60.02,16.528l-9.111,11.915c-14.987-11.46-27.598-14.863-49.98-13.472-16.672,1.034-33.202,5.896-47.804,14.061Z"/>
  <path d="M174.5,446.007c-25.571,0-51.429-7.925-79.05-24.227l6.1-10.334c25.722,15.181,49.584,22.561,72.95,22.561s42.088-5.419,62.871-18.12l6.258,10.24c-15.146,9.256-36.691,19.88-69.129,19.88Z"/>
  <g id="path26">
    <path d="M72.995,33.01c-12.741-.37-27.643,33.699-27.147,64.082,.115,9.254,2.723,28.023,6.529,51.594C28.376,176.504,.505,205.053,.505,242.511c-.383,34.327,18.352,78.061,62.803,77.64,6.823-.053,12.962-.999,18.416-2.629,4.064,24.949,6.766,44.641,6.75,53.737,.143,35.86-41.931,39.409-43.948,18.797,8.867-.342,15.923-8.229,15.923-17.982,0-9.964-7.367-18.088-16.509-18.088-5.027,0-9.506,2.471-12.544,6.336-.07,.079-.153,.158-.221,.237-.686,.815-1.263,1.788-1.834,2.892-1.874,3.549-3.09,8.649-3.155,15.932,0,30.023,67.792,49.347,67.792-9.859,.106-7.966-2.953-28.183-7.41-53.658,48.371-19.586,36.219-100.008-8.29-100.386-3.451,.039-6.778,.489-9.978,1.399-2.536-13.663-4.982-26.924-7.118-39.109,16.902-18.59,31.66-42.653,31.329-87.002,.052-31.848-9.424-57.386-19.515-57.757Zm3.007,30.809c5.766-.623,10.344,5.371,10.344,18.566,.467,22.662-13.711,42.453-30.594,62.358-1.615-10.903-2.674-19.736-2.789-24.976,.479-35.402,13.427-54.91,23.039-55.948Zm-18.122,117.483c2.059,11.87,4.282,24.376,6.529,36.972-29.46,11.736-43.598,57.717-1.834,78.295-25.457-24.268-12.927-52.996,5.428-58.001,4.616,25.806,9.123,51.271,12.767,73.276-4.947,1.945-10.72,3.076-17.463,3.129-16.859,0-50.55-12.015-50.55-57.51,0-38.105,23.588-53.59,45.122-76.16Zm14.307,56.442c.735-.05,1.531-.029,2.273,0,30.669,0,42.236,54.539,11.006,71.969-3.886-21.873-8.597-46.954-13.279-71.969Z" fill="#662d91"/>
    <path d="M62.723,408.507c-17.483,0-37.038-12.455-37.038-29.124,.062-6.806,1.143-12.243,3.213-16.165,.676-1.308,1.261-2.229,1.893-2.98,.047-.055,.094-.104,.141-.152l.089-.095c3.242-4.125,7.957-6.504,12.918-6.504,9.379,0,17.009,8.339,17.009,18.588,0,9.813-6.926,17.809-15.865,18.452,1.14,8.556,9.291,12.012,17.007,11.614,12.523-.636,25.964-10.57,25.883-30.88,.014-8.107-2.162-25.478-6.652-53.1-5.567,1.604-11.623,2.44-18.01,2.489-.217,.002-.435,.003-.65,.003-15.777,0-29.237-5.471-40.015-16.268C5.634,287.346-.204,261.247,.005,242.505,.005,207.979,23.364,181.206,45.953,155.313c1.978-2.267,3.948-4.524,5.893-6.777-4.331-26.843-6.396-43.192-6.498-51.438-.368-22.56,8.128-49.6,18.939-60.273,2.982-2.945,5.905-4.39,8.722-4.315h.004c10.89,.4,20.047,27.079,19.996,58.258,.343,45.932-15.598,69.848-31.294,87.156,2.163,12.325,4.628,25.673,6.976,38.328,3.016-.806,6.235-1.233,9.58-1.272,19.11,.163,34.311,15.287,38.735,38.53,4.285,22.508-3.255,51.645-29.878,62.667,5.107,29.229,7.442,46.19,7.348,53.354,0,24.403-11.871,38.977-31.754,38.977Zm-18.784-54.021c-4.652,0-9.081,2.239-12.151,6.145l-.235,.255c-.579,.688-1.125,1.552-1.768,2.795-1.998,3.783-3.04,9.066-3.1,15.707,0,16.092,19.026,28.119,36.038,28.119,5.992,0,14.546-1.485,21.273-8.562,6.291-6.618,9.481-16.517,9.481-29.421,.093-7.042-2.328-24.563-7.402-53.572l-.069-.397,.375-.152c26.403-10.69,33.875-39.48,29.645-61.705-4.332-22.754-19.15-37.559-37.751-37.717-3.442,.04-6.755,.504-9.837,1.38l-.528,.15-.1-.54c-2.394-12.898-4.915-26.543-7.12-39.114l-.042-.242,.165-.181c15.619-17.179,31.54-40.909,31.199-86.662,.054-33.329-9.984-56.923-19.029-57.261h0c-2.521-.07-5.21,1.282-7.99,4.027-9.283,9.165-19.05,34.538-18.642,59.547,.102,8.221,2.174,24.592,6.522,51.523l.037,.23-.152,.176c-1.995,2.312-4.018,4.63-6.048,6.958C24.239,181.724,1.005,208.354,1.005,242.511c-.207,18.544,5.556,44.348,22.349,61.169,10.729,10.747,24.18,16.104,39.949,15.971,6.503-.05,12.652-.927,18.278-2.608l.545-.162,.092,.562c4.561,28,6.771,45.604,6.756,53.818,.08,20.029-13.438,31.199-26.833,31.88-8.33,.427-17.174-3.442-18.113-13.034l-.052-.528,.53-.021c8.659-.333,15.441-8.013,15.441-17.482,0-9.698-7.182-17.588-16.009-17.588Zm19.373-39.015c-8.516,0-21.37-3.103-31.919-11.809-12.518-10.331-19.134-26.307-19.134-46.201,0-31.99,16.756-48.377,34.496-65.727,3.538-3.46,7.196-7.038,10.764-10.778l.685-.718,.169,.978c2.146,12.368,4.495,25.567,6.528,36.969l.072,.401-.379,.151c-15.598,6.214-26.952,22.226-27.609,38.938-.355,9.026,2.253,25.484,22.961,36.954-10.203-10.858-14.3-23.732-11.266-35.737,2.569-10.163,10.103-18.331,19.192-20.809l.527-.144,.096,.538c4.436,24.801,9.053,50.845,12.768,73.281l.066,.399-.376,.147c-5.206,2.049-11.142,3.113-17.642,3.164Zm-5.755-133.109c-3.362,3.494-6.786,6.842-10.104,10.087-17.585,17.198-34.195,33.443-34.195,65.012,0,19.585,6.491,35.295,18.771,45.43,10.345,8.538,22.94,11.58,31.278,11.58,6.216-.049,11.902-1.04,16.903-2.948-3.676-22.176-8.223-47.837-12.602-72.323-8.511,2.553-15.527,10.318-17.959,19.938-3.161,12.503,1.676,26.014,13.271,37.067l-.566,.811c-23.83-11.741-26.75-29.712-26.369-39.379,.667-16.959,12.102-33.212,27.86-39.675-1.964-11.011-4.214-23.659-6.289-35.6Zm27.54,128.131l-.123-.691c-3.599-20.259-7.993-43.731-12.242-66.431l-1.139-6.087,.561-.038c.75-.051,1.561-.031,2.326,0,13.096,0,24.245,10.274,28.382,26.175,4.202,16.15,.528,36.864-17.151,46.731l-.613,.343Zm-12.312-72.275l.93,4.968c4.201,22.441,8.544,45.639,12.12,65.741,16.686-9.741,20.115-29.667,16.059-45.256-4.019-15.446-14.787-25.427-27.434-25.427-.56-.021-1.133-.037-1.675-.026Zm-17.365-92.31l-.162-1.092c-1.773-11.97-2.688-20.16-2.795-25.039,.499-36.841,14.308-55.464,23.485-56.456,2.17-.233,4.188,.427,5.843,1.912,3.307,2.969,5.055,8.9,5.055,17.151,.492,23.846-15.595,44.858-30.712,62.681l-.714,.842Zm20.582-82.089l.054,.497c-8.821,.953-22.102,19.238-22.592,55.458,.103,4.669,.961,12.467,2.623,23.802,14.786-17.501,30.237-38.046,29.76-61.18,0-7.856-1.677-13.683-4.724-16.417-1.458-1.308-3.163-1.868-5.067-1.662l-.054-.497Z" fill="#662d91"/>
  </g>
  <g>
    <rect x="1506" y="12.507" width="0" height="185" fill="#1b1464"/>
    <rect x="1500.4" y="12.507" width="11.199" height="185" fill="#1b1464"/>
  </g>
</svg>